<svg width="32" height="32" viewBox="0 0 32 32" fill="none" xmlns="http://www.w3.org/2000/svg">
  <defs>
    <linearGradient id="faviconGradient" x1="0%" y1="0%" x2="100%" y2="100%">
      <stop offset="0%" stop-color="#00e5ff"/>
      <stop offset="50%" stop-color="#fb04ff"/>
      <stop offset="100%" stop-color="#8b5cf6"/>
    </linearGradient>
    
    <filter id="faviconGlow" x="-50%" y="-50%" width="200%" height="200%">
      <feGaussianBlur stdDeviation="1" result="coloredBlur"/>
      <feMerge> 
        <feMergeNode in="coloredBlur"/>
        <feMergeNode in="SourceGraphic"/>
      </feMerge>
    </filter>
  </defs>
  
  <!-- Background -->
  <rect width="32" height="32" rx="6" fill="#0a0a0f"/>
  
  <!-- Circuit pattern background -->
  <path d="M8 16h16M16 8v16" stroke="#00e5ff" stroke-width="0.5" opacity="0.3"/>
  <circle cx="16" cy="16" r="1" fill="#fb04ff" opacity="0.6"/>
  
  <!-- Main logo - simplified KVM -->
  <g filter="url(#faviconGlow)">
    <!-- K -->
    <path d="M6 8v16M6 14l4-6M6 16l4 8" stroke="url(#faviconGradient)" stroke-width="2" stroke-linecap="round" fill="none"/>
    
    <!-- V -->
    <path d="M14 8l2 8l2-8" stroke="url(#faviconGradient)" stroke-width="2" stroke-linecap="round" fill="none"/>
    
    <!-- M -->
    <path d="M22 24V8l2 6l2-6v16" stroke="url(#faviconGradient)" stroke-width="2" stroke-linecap="round" fill="none"/>
  </g>
  
  <!-- Glow dots -->
  <circle cx="8" cy="14" r="0.8" fill="#00e5ff"/>
  <circle cx="16" cy="14" r="0.8" fill="#fb04ff"/>
  <circle cx="24" cy="14" r="0.8" fill="#8b5cf6"/>
  
  <!-- Frame -->
  <rect x="1" y="1" width="30" height="30" rx="5" stroke="url(#faviconGradient)" stroke-width="1" fill="none" opacity="0.6"/>
</svg>